<svg xmlns="http://www.w3.org/2000/svg" xmlns:xlink="http://www.w3.org/1999/xlink" width="360" zoomAndPan="magnify" viewBox="0 0 270 60" height="80" preserveAspectRatio="xMidYMid meet" version="1.0"><defs><g/><clipPath id="de67acd3a6"><path d="M 147.5 7.929688 L 247.003906 7.929688 L 247.003906 52.929688 L 147.5 52.929688 Z M 147.5 7.929688 " clip-rule="nonzero"/></clipPath></defs><g clip-path="url(#de67acd3a6)"><path fill="#ffffff" d="M 147.335938 38.96875 L 147.335938 42.363281 C 147.335938 42.363281 147.496094 44.441406 148.617188 44.761719 C 148.972656 44.863281 150.789062 45.300781 151.351562 45.414062 C 150.789062 44.753906 150.226562 43.695312 150.089844 42.039062 L 150.089844 38.96875 Z M 215.628906 45.003906 C 215.628906 45.523438 215.679688 46.039062 215.78125 46.550781 C 215.886719 47.0625 216.035156 47.558594 216.234375 48.039062 C 216.433594 48.519531 216.679688 48.976562 216.96875 49.410156 C 217.261719 49.84375 217.589844 50.246094 217.957031 50.613281 C 218.328125 50.980469 218.726562 51.308594 219.160156 51.597656 C 219.59375 51.890625 220.050781 52.132812 220.535156 52.332031 C 221.015625 52.53125 221.511719 52.679688 222.023438 52.78125 C 222.535156 52.882812 223.050781 52.933594 223.570312 52.933594 C 224.09375 52.933594 224.609375 52.882812 225.117188 52.78125 C 225.628906 52.679688 226.125 52.527344 226.609375 52.328125 C 227.089844 52.128906 227.546875 51.882812 227.980469 51.59375 C 228.414062 51.304688 228.8125 50.976562 229.179688 50.605469 C 229.550781 50.238281 229.878906 49.835938 230.167969 49.402344 C 230.457031 48.96875 230.699219 48.511719 230.898438 48.03125 C 231.097656 47.550781 231.25 47.054688 231.351562 46.542969 C 231.453125 46.03125 231.503906 45.515625 231.503906 44.992188 C 231.503906 44.472656 231.453125 43.957031 231.347656 43.445312 C 231.246094 42.933594 231.097656 42.4375 230.898438 41.957031 C 230.699219 41.476562 230.453125 41.019531 230.164062 40.585938 C 229.875 40.152344 229.542969 39.75 229.175781 39.382812 C 228.808594 39.015625 228.40625 38.6875 227.972656 38.398438 C 227.539062 38.109375 227.082031 37.863281 226.601562 37.664062 C 226.117188 37.464844 225.621094 37.3125 225.109375 37.214844 C 224.601562 37.113281 224.085938 37.0625 223.5625 37.0625 C 223.042969 37.0625 222.523438 37.113281 222.015625 37.214844 C 221.503906 37.316406 221.007812 37.464844 220.523438 37.664062 C 220.042969 37.863281 219.585938 38.109375 219.152344 38.398438 C 218.71875 38.6875 218.316406 39.019531 217.949219 39.386719 C 217.582031 39.757812 217.253906 40.15625 216.964844 40.589844 C 216.671875 41.023438 216.429688 41.484375 216.230469 41.964844 C 216.03125 42.445312 215.882812 42.941406 215.78125 43.453125 C 215.679688 43.964844 215.628906 44.480469 215.628906 45.003906 Z M 218.960938 45.003906 C 218.960938 44.699219 218.992188 44.402344 219.050781 44.105469 C 219.109375 43.808594 219.195312 43.519531 219.3125 43.242188 C 219.425781 42.960938 219.570312 42.695312 219.738281 42.445312 C 219.902344 42.191406 220.09375 41.960938 220.308594 41.746094 C 220.523438 41.53125 220.753906 41.339844 221.007812 41.171875 C 221.257812 41.003906 221.523438 40.863281 221.800781 40.746094 C 222.082031 40.628906 222.371094 40.542969 222.664062 40.484375 C 222.960938 40.425781 223.261719 40.394531 223.5625 40.394531 C 223.867188 40.394531 224.167969 40.425781 224.460938 40.484375 C 224.757812 40.542969 225.046875 40.628906 225.328125 40.746094 C 225.605469 40.859375 225.871094 41.003906 226.121094 41.171875 C 226.375 41.339844 226.605469 41.53125 226.820312 41.742188 C 227.035156 41.957031 227.226562 42.191406 227.394531 42.441406 C 227.5625 42.691406 227.703125 42.957031 227.820312 43.238281 C 227.933594 43.515625 228.023438 43.804688 228.082031 44.101562 C 228.140625 44.398438 228.167969 44.695312 228.167969 45 C 228.167969 45.300781 228.140625 45.601562 228.082031 45.898438 C 228.023438 46.195312 227.933594 46.484375 227.816406 46.761719 C 227.703125 47.042969 227.5625 47.304688 227.390625 47.558594 C 227.222656 47.808594 227.035156 48.042969 226.820312 48.253906 C 226.605469 48.46875 226.371094 48.660156 226.121094 48.828125 C 225.871094 48.996094 225.605469 49.136719 225.324219 49.253906 C 225.046875 49.367188 224.757812 49.457031 224.460938 49.515625 C 224.164062 49.574219 223.863281 49.601562 223.5625 49.601562 C 223.261719 49.601562 222.960938 49.574219 222.664062 49.511719 C 222.367188 49.453125 222.082031 49.367188 221.800781 49.25 C 221.523438 49.136719 221.257812 48.996094 221.007812 48.828125 C 220.757812 48.660156 220.523438 48.46875 220.308594 48.253906 C 220.097656 48.042969 219.90625 47.808594 219.738281 47.558594 C 219.570312 47.308594 219.429688 47.042969 219.3125 46.761719 C 219.199219 46.484375 219.109375 46.195312 219.050781 45.898438 C 218.992188 45.605469 218.960938 45.304688 218.960938 45.003906 Z M 222.679688 46.21875 C 222.707031 46.207031 222.738281 46.203125 222.765625 46.203125 C 222.921875 46.203125 223 46.28125 223.003906 46.433594 L 223.003906 48.234375 C 223.003906 48.390625 222.921875 48.46875 222.765625 48.464844 C 222.742188 48.464844 222.71875 48.460938 222.695312 48.457031 C 222.621094 48.4375 222.554688 48.417969 222.488281 48.398438 C 222.472656 48.394531 222.453125 48.386719 222.4375 48.378906 C 222.371094 48.359375 222.304688 48.335938 222.238281 48.308594 C 222.160156 48.277344 222.097656 48.25 222.035156 48.222656 C 221.9375 48.171875 221.871094 48.136719 221.8125 48.101562 C 221.742188 48.0625 221.675781 48.023438 221.613281 47.980469 C 221.535156 47.929688 221.472656 47.886719 221.414062 47.839844 C 221.289062 47.746094 221.167969 47.640625 221.058594 47.53125 C 221.027344 47.488281 221.011719 47.445312 221.011719 47.394531 C 221.011719 47.320312 221.039062 47.261719 221.09375 47.210938 Z M 223.566406 44.316406 C 223.753906 44.316406 223.917969 44.382812 224.050781 44.515625 C 224.183594 44.648438 224.25 44.8125 224.25 45 C 224.25 45.1875 224.183594 45.351562 224.050781 45.484375 C 223.917969 45.617188 223.753906 45.683594 223.566406 45.683594 C 223.375 45.683594 223.214844 45.617188 223.082031 45.484375 C 222.949219 45.351562 222.882812 45.1875 222.882812 45 C 222.882812 44.808594 222.949219 44.648438 223.082031 44.515625 C 223.214844 44.382812 223.375 44.3125 223.566406 44.3125 Z M 220.507812 43.742188 L 222.195312 44.800781 C 222.265625 44.851562 222.300781 44.917969 222.300781 45 C 222.300781 45.082031 222.265625 45.148438 222.199219 45.195312 C 222.15625 45.222656 220.535156 46.242188 220.535156 46.242188 C 220.472656 46.28125 220.402344 46.292969 220.328125 46.265625 C 220.257812 46.242188 220.207031 46.191406 220.183594 46.117188 C 220.167969 46.078125 220.15625 46.039062 220.144531 46 C 220.125 45.933594 220.113281 45.894531 220.105469 45.855469 C 220.082031 45.761719 220.070312 45.699219 220.058594 45.632812 C 220.054688 45.609375 220.050781 45.589844 220.046875 45.566406 C 220.042969 45.539062 220.039062 45.515625 220.035156 45.492188 C 220.03125 45.460938 220.027344 45.429688 220.023438 45.402344 C 220.019531 45.378906 220.019531 45.355469 220.015625 45.335938 C 220.011719 45.296875 220.011719 45.257812 220.007812 45.21875 C 220.007812 45.203125 220.007812 45.183594 220.007812 45.167969 C 220.003906 45.113281 220 45.054688 220 45 C 220 44.941406 220.003906 44.886719 220.007812 44.832031 C 220.007812 44.8125 220.007812 44.796875 220.007812 44.78125 C 220.011719 44.742188 220.011719 44.703125 220.015625 44.664062 C 220.019531 44.644531 220.019531 44.621094 220.023438 44.601562 C 220.027344 44.570312 220.03125 44.535156 220.035156 44.503906 C 220.039062 44.480469 220.042969 44.457031 220.046875 44.433594 C 220.050781 44.40625 220.054688 44.375 220.0625 44.347656 C 220.074219 44.292969 220.082031 44.242188 220.09375 44.191406 C 220.097656 44.175781 220.101562 44.160156 220.105469 44.144531 C 220.117188 44.109375 220.125 44.070312 220.132812 44.035156 C 220.15625 43.964844 220.167969 43.925781 220.179688 43.886719 C 220.214844 43.773438 220.292969 43.71875 220.410156 43.71875 C 220.445312 43.71875 220.476562 43.726562 220.503906 43.742188 Z M 224.367188 46.203125 C 224.394531 46.203125 224.425781 46.207031 224.453125 46.21875 L 226.039062 47.210938 C 226.09375 47.261719 226.121094 47.320312 226.121094 47.394531 C 226.121094 47.441406 226.105469 47.488281 226.078125 47.527344 C 225.96875 47.636719 225.851562 47.738281 225.726562 47.835938 C 225.660156 47.886719 225.597656 47.929688 225.535156 47.972656 C 225.460938 48.019531 225.398438 48.058594 225.335938 48.09375 C 225.261719 48.136719 225.195312 48.171875 225.128906 48.203125 C 225.035156 48.25 224.976562 48.277344 224.910156 48.300781 C 224.828125 48.335938 224.761719 48.359375 224.695312 48.378906 C 224.679688 48.386719 224.660156 48.394531 224.644531 48.398438 C 224.578125 48.417969 224.511719 48.4375 224.441406 48.453125 C 224.417969 48.460938 224.390625 48.464844 224.363281 48.464844 C 224.207031 48.464844 224.128906 48.386719 224.125 48.230469 L 224.125 46.433594 C 224.128906 46.277344 224.210938 46.203125 224.363281 46.203125 Z M 222.765625 43.792969 C 222.726562 43.792969 222.6875 43.78125 222.648438 43.761719 L 221.117188 42.796875 C 221.050781 42.75 221.015625 42.6875 221.015625 42.605469 C 221.015625 42.542969 221.039062 42.488281 221.082031 42.441406 C 221.136719 42.390625 221.1875 42.34375 221.242188 42.296875 C 221.359375 42.195312 221.484375 42.101562 221.613281 42.015625 C 221.746094 41.929688 221.878906 41.855469 222.019531 41.785156 C 222.164062 41.71875 222.308594 41.65625 222.460938 41.609375 C 222.5625 41.578125 222.636719 41.558594 222.707031 41.539062 C 222.726562 41.535156 222.746094 41.53125 222.765625 41.53125 C 222.921875 41.53125 223 41.609375 223.003906 41.765625 L 223.003906 43.558594 C 223 43.714844 222.921875 43.792969 222.765625 43.792969 Z M 224.484375 43.761719 C 224.445312 43.78125 224.40625 43.792969 224.363281 43.792969 C 224.210938 43.792969 224.128906 43.714844 224.128906 43.558594 L 224.128906 41.765625 C 224.128906 41.613281 224.210938 41.535156 224.363281 41.53125 C 224.382812 41.53125 224.402344 41.535156 224.421875 41.539062 C 224.496094 41.558594 224.566406 41.578125 224.636719 41.601562 C 224.789062 41.648438 224.933594 41.703125 225.078125 41.769531 C 225.21875 41.835938 225.355469 41.914062 225.484375 41.996094 C 225.617188 42.082031 225.742188 42.171875 225.859375 42.273438 C 225.921875 42.324219 225.984375 42.382812 226.046875 42.441406 C 226.09375 42.484375 226.117188 42.539062 226.117188 42.605469 C 226.117188 42.6875 226.082031 42.75 226.015625 42.800781 Z M 224.976562 45.21875 C 224.886719 45.175781 224.835938 45.101562 224.832031 45 C 224.832031 44.917969 224.867188 44.851562 224.9375 44.800781 C 224.9375 44.800781 226.628906 43.742188 226.628906 43.742188 C 226.65625 43.726562 226.691406 43.71875 226.722656 43.71875 C 226.84375 43.71875 226.917969 43.773438 226.953125 43.886719 C 226.96875 43.925781 226.980469 43.964844 226.988281 44.003906 C 227.007812 44.070312 227.019531 44.109375 227.027344 44.144531 C 227.03125 44.160156 227.035156 44.175781 227.039062 44.191406 C 227.050781 44.242188 227.0625 44.292969 227.070312 44.347656 C 227.078125 44.375 227.082031 44.40625 227.085938 44.433594 C 227.089844 44.457031 227.09375 44.480469 227.097656 44.503906 C 227.101562 44.535156 227.105469 44.570312 227.109375 44.601562 C 227.113281 44.621094 227.113281 44.644531 227.117188 44.664062 C 227.121094 44.703125 227.121094 44.742188 227.125 44.78125 C 227.125 44.796875 227.128906 44.8125 227.128906 44.832031 C 227.132812 44.886719 227.132812 44.941406 227.132812 45 C 227.132812 45.054688 227.132812 45.113281 227.128906 45.167969 C 227.128906 45.183594 227.125 45.203125 227.125 45.21875 C 227.121094 45.257812 227.121094 45.296875 227.117188 45.335938 C 227.113281 45.355469 227.113281 45.378906 227.109375 45.402344 C 227.105469 45.429688 227.101562 45.460938 227.097656 45.492188 C 227.09375 45.515625 227.089844 45.542969 227.085938 45.570312 C 227.082031 45.589844 227.078125 45.613281 227.074219 45.632812 C 227.0625 45.699219 227.050781 45.761719 227.03125 45.828125 C 227.019531 45.894531 227.007812 45.933594 226.996094 45.972656 C 226.976562 46.039062 226.964844 46.082031 226.953125 46.117188 C 226.914062 46.226562 226.839844 46.277344 226.722656 46.277344 C 226.679688 46.277344 226.636719 46.265625 226.597656 46.242188 C 226.597656 46.242188 224.976562 45.222656 224.976562 45.21875 Z M 166.90625 45.003906 C 166.90625 45.523438 166.957031 46.039062 167.058594 46.550781 C 167.164062 47.0625 167.3125 47.558594 167.511719 48.039062 C 167.710938 48.519531 167.957031 48.976562 168.246094 49.410156 C 168.535156 49.84375 168.867188 50.246094 169.234375 50.613281 C 169.605469 50.980469 170.003906 51.308594 170.4375 51.597656 C 170.871094 51.890625 171.328125 52.132812 171.8125 52.332031 C 172.292969 52.53125 172.789062 52.679688 173.300781 52.78125 C 173.8125 52.882812 174.328125 52.933594 174.847656 52.933594 C 175.367188 52.933594 175.886719 52.882812 176.394531 52.78125 C 176.90625 52.679688 177.402344 52.527344 177.882812 52.328125 C 178.367188 52.128906 178.824219 51.882812 179.257812 51.59375 C 179.6875 51.304688 180.089844 50.976562 180.457031 50.605469 C 180.828125 50.238281 181.15625 49.835938 181.445312 49.402344 C 181.734375 48.96875 181.976562 48.511719 182.175781 48.03125 C 182.375 47.550781 182.527344 47.054688 182.628906 46.542969 C 182.730469 46.03125 182.78125 45.515625 182.78125 44.992188 C 182.78125 44.472656 182.730469 43.957031 182.625 43.445312 C 182.523438 42.933594 182.375 42.4375 182.175781 41.957031 C 181.976562 41.476562 181.730469 41.019531 181.441406 40.585938 C 181.152344 40.152344 180.820312 39.75 180.453125 39.382812 C 180.085938 39.015625 179.683594 38.6875 179.25 38.398438 C 178.816406 38.109375 178.359375 37.863281 177.878906 37.664062 C 177.394531 37.464844 176.898438 37.316406 176.390625 37.214844 C 175.878906 37.113281 175.363281 37.0625 174.839844 37.0625 C 174.320312 37.0625 173.804688 37.113281 173.292969 37.214844 C 172.78125 37.316406 172.285156 37.464844 171.800781 37.664062 C 171.320312 37.867188 170.863281 38.109375 170.429688 38.398438 C 169.996094 38.691406 169.597656 39.019531 169.226562 39.386719 C 168.859375 39.757812 168.53125 40.15625 168.242188 40.589844 C 167.953125 41.023438 167.707031 41.484375 167.507812 41.964844 C 167.308594 42.445312 167.160156 42.941406 167.058594 43.453125 C 166.957031 43.964844 166.90625 44.480469 166.90625 45.003906 Z M 170.238281 45.003906 C 170.238281 44.699219 170.269531 44.402344 170.328125 44.105469 C 170.386719 43.808594 170.472656 43.519531 170.589844 43.242188 C 170.703125 42.960938 170.84375 42.695312 171.011719 42.445312 C 171.179688 42.191406 171.371094 41.960938 171.585938 41.746094 C 171.800781 41.53125 172.03125 41.339844 172.28125 41.171875 C 172.535156 41.003906 172.800781 40.863281 173.078125 40.746094 C 173.359375 40.628906 173.644531 40.542969 173.941406 40.484375 C 174.238281 40.425781 174.539062 40.394531 174.839844 40.394531 C 175.144531 40.394531 175.441406 40.425781 175.738281 40.484375 C 176.035156 40.542969 176.324219 40.628906 176.605469 40.746094 C 176.882812 40.859375 177.148438 41.003906 177.398438 41.171875 C 177.652344 41.339844 177.882812 41.527344 178.097656 41.742188 C 178.3125 41.957031 178.503906 42.1875 178.671875 42.441406 C 178.839844 42.691406 178.980469 42.957031 179.097656 43.238281 C 179.210938 43.515625 179.300781 43.804688 179.359375 44.101562 C 179.417969 44.398438 179.445312 44.695312 179.445312 45 C 179.445312 45.300781 179.417969 45.601562 179.359375 45.898438 C 179.300781 46.195312 179.210938 46.484375 179.097656 46.761719 C 178.980469 47.042969 178.839844 47.304688 178.667969 47.558594 C 178.5 47.808594 178.3125 48.042969 178.097656 48.253906 C 177.882812 48.46875 177.648438 48.660156 177.398438 48.828125 C 177.148438 48.996094 176.882812 49.136719 176.601562 49.253906 C 176.324219 49.367188 176.035156 49.457031 175.738281 49.515625 C 175.441406 49.574219 175.140625 49.601562 174.839844 49.601562 C 174.539062 49.601562 174.238281 49.574219 173.941406 49.511719 C 173.644531 49.453125 173.359375 49.367188 173.078125 49.25 C 172.800781 49.136719 172.535156 48.992188 172.285156 48.828125 C 172.035156 48.660156 171.800781 48.46875 171.585938 48.253906 C 171.375 48.042969 171.183594 47.808594 171.015625 47.558594 C 170.847656 47.308594 170.707031 47.042969 170.589844 46.761719 C 170.476562 46.484375 170.386719 46.195312 170.328125 45.898438 C 170.269531 45.605469 170.238281 45.304688 170.238281 45.003906 Z M 173.957031 46.21875 C 174.035156 46.1875 174.105469 46.195312 174.175781 46.242188 C 174.246094 46.289062 174.28125 46.351562 174.28125 46.433594 L 174.28125 48.234375 C 174.28125 48.390625 174.203125 48.46875 174.042969 48.464844 C 174.019531 48.464844 173.996094 48.460938 173.972656 48.457031 C 173.898438 48.4375 173.832031 48.417969 173.765625 48.398438 C 173.75 48.394531 173.730469 48.386719 173.714844 48.378906 C 173.648438 48.359375 173.582031 48.335938 173.515625 48.308594 C 173.4375 48.277344 173.375 48.25 173.3125 48.222656 C 173.214844 48.171875 173.152344 48.136719 173.085938 48.101562 C 173.019531 48.0625 172.953125 48.023438 172.890625 47.980469 C 172.8125 47.929688 172.75 47.886719 172.691406 47.839844 C 172.566406 47.746094 172.445312 47.640625 172.335938 47.53125 C 172.304688 47.488281 172.289062 47.445312 172.289062 47.394531 C 172.289062 47.320312 172.316406 47.261719 172.371094 47.210938 Z M 174.84375 44.316406 C 175.035156 44.316406 175.195312 44.382812 175.328125 44.515625 C 175.460938 44.648438 175.53125 44.808594 175.53125 45 C 175.53125 45.1875 175.460938 45.351562 175.328125 45.484375 C 175.195312 45.617188 175.035156 45.683594 174.84375 45.683594 C 174.65625 45.683594 174.492188 45.617188 174.359375 45.484375 C 174.226562 45.351562 174.160156 45.1875 174.160156 45 C 174.160156 44.808594 174.226562 44.648438 174.359375 44.515625 C 174.492188 44.382812 174.65625 44.3125 174.84375 44.3125 Z M 171.785156 43.742188 L 173.472656 44.800781 C 173.542969 44.851562 173.578125 44.917969 173.578125 45 C 173.578125 45.085938 173.546875 45.148438 173.476562 45.195312 C 173.433594 45.222656 171.8125 46.242188 171.8125 46.242188 C 171.75 46.28125 171.679688 46.289062 171.605469 46.265625 C 171.535156 46.238281 171.484375 46.191406 171.460938 46.117188 C 171.445312 46.078125 171.433594 46.039062 171.421875 46 C 171.402344 45.933594 171.394531 45.894531 171.382812 45.855469 C 171.363281 45.761719 171.347656 45.699219 171.335938 45.632812 C 171.332031 45.613281 171.328125 45.589844 171.324219 45.566406 C 171.320312 45.539062 171.316406 45.515625 171.3125 45.492188 C 171.308594 45.460938 171.304688 45.429688 171.300781 45.402344 C 171.296875 45.378906 171.296875 45.355469 171.292969 45.335938 C 171.289062 45.296875 171.289062 45.257812 171.285156 45.21875 C 171.285156 45.203125 171.285156 45.183594 171.28125 45.167969 C 171.28125 45.113281 171.277344 45.054688 171.277344 45 C 171.277344 44.941406 171.28125 44.886719 171.28125 44.832031 C 171.285156 44.8125 171.285156 44.796875 171.285156 44.78125 C 171.289062 44.742188 171.289062 44.703125 171.292969 44.664062 C 171.296875 44.644531 171.296875 44.621094 171.300781 44.601562 C 171.304688 44.570312 171.308594 44.535156 171.3125 44.503906 C 171.316406 44.480469 171.320312 44.457031 171.324219 44.433594 C 171.328125 44.40625 171.335938 44.375 171.339844 44.347656 C 171.347656 44.292969 171.359375 44.242188 171.371094 44.191406 C 171.375 44.175781 171.378906 44.160156 171.382812 44.144531 C 171.390625 44.109375 171.402344 44.070312 171.410156 44.035156 C 171.429688 43.964844 171.445312 43.925781 171.457031 43.886719 C 171.492188 43.773438 171.570312 43.71875 171.6875 43.71875 C 171.722656 43.71875 171.753906 43.726562 171.785156 43.742188 Z M 176.257812 45.21875 C 176.164062 45.175781 176.117188 45.101562 176.113281 45 C 176.113281 44.917969 176.148438 44.851562 176.214844 44.800781 C 176.214844 44.800781 177.90625 43.742188 177.90625 43.742188 C 177.9375 43.726562 177.96875 43.71875 178.003906 43.71875 C 178.121094 43.71875 178.195312 43.773438 178.230469 43.886719 C 178.246094 43.925781 178.257812 43.964844 178.269531 44.003906 C 178.289062 44.070312 178.300781 44.109375 178.304688 44.144531 C 178.3125 44.160156 178.3125 44.175781 178.316406 44.191406 C 178.328125 44.242188 178.339844 44.292969 178.351562 44.347656 C 178.355469 44.375 178.359375 44.40625 178.367188 44.433594 C 178.371094 44.457031 178.371094 44.480469 178.375 44.503906 C 178.378906 44.535156 178.382812 44.570312 178.386719 44.601562 C 178.390625 44.621094 178.394531 44.644531 178.394531 44.664062 C 178.398438 44.703125 178.402344 44.742188 178.402344 44.78125 C 178.402344 44.796875 178.40625 44.8125 178.40625 44.832031 C 178.410156 44.886719 178.410156 44.941406 178.410156 45 C 178.410156 45.054688 178.410156 45.113281 178.40625 45.167969 C 178.40625 45.183594 178.402344 45.203125 178.402344 45.21875 C 178.402344 45.257812 178.398438 45.296875 178.394531 45.335938 C 178.394531 45.355469 178.390625 45.378906 178.386719 45.402344 C 178.382812 45.429688 178.378906 45.460938 178.375 45.492188 C 178.371094 45.515625 178.371094 45.542969 178.367188 45.570312 C 178.363281 45.589844 178.359375 45.613281 178.355469 45.632812 C 178.34375 45.699219 178.328125 45.761719 178.3125 45.828125 C 178.296875 45.894531 178.289062 45.933594 178.277344 45.972656 C 178.257812 46.039062 178.242188 46.082031 178.230469 46.117188 C 178.191406 46.226562 178.117188 46.277344 178.003906 46.277344 C 177.957031 46.277344 177.914062 46.265625 177.875 46.242188 C 177.875 46.242188 176.253906 45.222656 176.253906 45.21875 Z M 175.761719 43.761719 C 175.726562 43.78125 175.6875 43.792969 175.644531 43.792969 C 175.488281 43.792969 175.40625 43.714844 175.40625 43.558594 L 175.40625 41.765625 C 175.40625 41.609375 175.488281 41.53125 175.644531 41.53125 C 175.664062 41.53125 175.683594 41.535156 175.699219 41.539062 C 175.773438 41.558594 175.847656 41.578125 175.914062 41.601562 C 176.066406 41.648438 176.210938 41.703125 176.355469 41.769531 C 176.496094 41.835938 176.632812 41.914062 176.761719 41.996094 C 176.894531 42.082031 177.019531 42.171875 177.136719 42.273438 C 177.203125 42.324219 177.265625 42.382812 177.324219 42.441406 C 177.371094 42.484375 177.394531 42.539062 177.394531 42.605469 C 177.394531 42.6875 177.359375 42.753906 177.292969 42.800781 Z M 174.042969 43.792969 C 174.003906 43.792969 173.964844 43.78125 173.929688 43.761719 L 172.394531 42.796875 C 172.328125 42.75 172.292969 42.6875 172.292969 42.605469 C 172.296875 42.542969 172.316406 42.488281 172.359375 42.441406 C 172.414062 42.390625 172.46875 42.34375 172.519531 42.296875 C 172.640625 42.195312 172.761719 42.101562 172.894531 42.015625 C 173.023438 41.929688 173.160156 41.855469 173.300781 41.785156 C 173.441406 41.71875 173.589844 41.660156 173.738281 41.609375 C 173.84375 41.578125 173.914062 41.558594 173.988281 41.539062 C 174.007812 41.535156 174.027344 41.53125 174.046875 41.53125 C 174.203125 41.53125 174.28125 41.609375 174.28125 41.765625 L 174.28125 43.558594 C 174.28125 43.714844 174.203125 43.792969 174.042969 43.792969 Z M 175.644531 46.203125 C 175.675781 46.203125 175.703125 46.207031 175.730469 46.21875 L 177.316406 47.210938 C 177.371094 47.261719 177.398438 47.320312 177.398438 47.394531 C 177.398438 47.441406 177.386719 47.488281 177.355469 47.527344 C 177.246094 47.636719 177.128906 47.742188 177.003906 47.835938 C 176.9375 47.886719 176.875 47.929688 176.8125 47.972656 C 176.738281 48.019531 176.675781 48.058594 176.613281 48.09375 C 176.539062 48.136719 176.472656 48.171875 176.410156 48.203125 C 176.316406 48.25 176.253906 48.277344 176.1875 48.300781 C 176.105469 48.335938 176.039062 48.359375 175.972656 48.378906 C 175.957031 48.386719 175.941406 48.394531 175.921875 48.398438 C 175.855469 48.417969 175.789062 48.4375 175.71875 48.457031 C 175.695312 48.460938 175.667969 48.464844 175.644531 48.464844 C 175.488281 48.464844 175.40625 48.386719 175.40625 48.234375 L 175.40625 46.433594 C 175.410156 46.277344 175.488281 46.203125 175.644531 46.203125 Z M 151.304688 41.890625 C 151.542969 44.859375 153.351562 45.539062 153.351562 45.539062 C 153.351562 45.539062 160.070312 46.496094 163.992188 47.109375 L 163.992188 49.386719 C 163.996094 49.507812 164.039062 49.613281 164.128906 49.699219 C 164.21875 49.785156 164.324219 49.832031 164.445312 49.832031 C 164.570312 49.832031 164.675781 49.785156 164.761719 49.699219 C 164.851562 49.613281 164.894531 49.507812 164.898438 49.386719 L 164.898438 42.902344 C 164.894531 42.878906 164.890625 42.851562 164.882812 42.828125 C 165.027344 42.164062 165.234375 41.519531 165.503906 40.894531 C 165.773438 40.269531 166.105469 39.679688 166.496094 39.125 C 166.882812 38.566406 167.324219 38.050781 167.816406 37.582031 C 168.308594 37.113281 168.84375 36.699219 169.421875 36.335938 C 169.996094 35.972656 170.601562 35.671875 171.238281 35.429688 C 171.875 35.1875 172.527344 35.011719 173.199219 34.902344 C 173.871094 34.792969 174.542969 34.75 175.222656 34.773438 C 175.90625 34.800781 176.574219 34.890625 177.234375 35.050781 C 177.898438 35.210938 178.535156 35.433594 179.152344 35.722656 C 179.769531 36.007812 180.351562 36.355469 180.898438 36.757812 C 181.445312 37.160156 181.949219 37.613281 182.40625 38.121094 C 182.863281 38.625 183.261719 39.167969 183.609375 39.753906 C 183.957031 40.335938 184.246094 40.949219 184.46875 41.59375 C 184.695312 42.234375 184.851562 42.890625 184.945312 43.566406 C 185.039062 44.238281 185.066406 44.917969 185.023438 45.59375 C 184.980469 46.273438 184.871094 46.941406 184.695312 47.597656 L 212.714844 47.597656 L 212.714844 49.386719 C 212.714844 49.511719 212.757812 49.621094 212.84375 49.710938 C 212.933594 49.800781 213.042969 49.847656 213.167969 49.847656 C 213.292969 49.847656 213.402344 49.800781 213.492188 49.710938 C 213.578125 49.621094 213.621094 49.511719 213.621094 49.386719 L 213.621094 47.597656 L 213.714844 47.597656 C 213.671875 47.445312 213.652344 47.285156 213.621094 47.128906 L 213.621094 42.902344 C 213.617188 42.878906 213.613281 42.851562 213.605469 42.828125 C 213.746094 42.171875 213.953125 41.535156 214.21875 40.921875 C 214.488281 40.304688 214.8125 39.722656 215.195312 39.167969 C 215.582031 38.617188 216.011719 38.109375 216.496094 37.644531 C 216.980469 37.175781 217.507812 36.761719 218.070312 36.402344 C 218.636719 36.039062 219.234375 35.734375 219.859375 35.492188 C 220.484375 35.246094 221.128906 35.066406 221.789062 34.949219 C 222.449219 34.832031 223.117188 34.78125 223.789062 34.796875 C 224.460938 34.808594 225.121094 34.890625 225.777344 35.035156 C 226.433594 35.179688 227.070312 35.390625 227.683594 35.660156 C 228.296875 35.933594 228.878906 36.261719 229.429688 36.648438 C 229.980469 37.035156 230.484375 37.46875 230.949219 37.957031 C 231.410156 38.441406 231.824219 38.96875 232.183594 39.535156 C 232.539062 40.105469 232.839844 40.703125 233.082031 41.328125 C 233.324219 41.957031 233.5 42.601562 233.613281 43.261719 C 233.726562 43.921875 233.777344 44.589844 233.757812 45.261719 C 233.738281 45.933594 233.65625 46.597656 233.507812 47.25 C 239.96875 46.523438 246.363281 45.085938 246.449219 45.085938 C 247.125 44.410156 247.160156 38.898438 246.941406 36.898438 C 246.914062 36.671875 246.488281 36.296875 246.488281 36.296875 L 245.925781 36.195312 L 240.4375 36.195312 C 239.914062 36.195312 239.871094 35.363281 239.871094 35.363281 L 239.871094 31.480469 C 239.871094 30.777344 240.34375 30.765625 240.34375 30.765625 L 244.714844 30.765625 C 244.417969 28.257812 243.9375 26.339844 243.058594 25.492188 C 242.066406 24.816406 224.644531 11.023438 223.039062 9.84375 C 221.433594 8.667969 219.316406 7.929688 216.375 7.929688 L 158.148438 7.929688 C 155.664062 7.929688 154.433594 9.738281 154.195312 10.492188 C 154.195312 10.492188 154.121094 10.78125 154 11.273438 L 149.703125 14.710938 C 149.570312 14.816406 149.492188 14.949219 149.457031 15.113281 L 148.554688 19.863281 C 148.519531 20.046875 148.554688 20.214844 148.660156 20.371094 C 148.765625 20.527344 148.910156 20.621094 149.09375 20.65625 C 149.277344 20.691406 149.449219 20.65625 149.601562 20.550781 C 149.757812 20.445312 149.851562 20.300781 149.886719 20.117188 L 150.746094 15.613281 L 153.476562 13.429688 C 152.621094 17.039062 151.304688 22.996094 151.304688 25.492188 Z M 244.007812 39.375 C 244 39.238281 244.042969 39.121094 244.136719 39.023438 C 244.230469 38.921875 244.347656 38.871094 244.480469 38.871094 L 245.511719 38.871094 C 246.203125 38.871094 246.203125 39.121094 246.222656 39.25 C 246.363281 40.203125 246.242188 41.671875 246.167969 42.148438 C 246.167969 42.148438 246.222656 42.714844 245.5 42.710938 C 244.941406 42.710938 245.101562 42.710938 244.574219 42.710938 C 244.050781 42.710938 244.007812 42.121094 244.007812 42.121094 Z M 212.019531 15.695312 C 212.019531 14.699219 213.003906 14.4375 213.664062 14.4375 L 222.480469 14.4375 C 222.480469 14.4375 224.210938 14.609375 225.003906 15.183594 C 225.796875 15.757812 230.472656 19.507812 233.164062 21.640625 C 234.257812 22.507812 234.722656 24.332031 232.203125 24.285156 C 226.261719 24.175781 216.230469 23.507812 215.386719 23.507812 C 213.6875 23.507812 212.019531 21.785156 212.019531 20.4375 Z M 187.660156 43.808594 C 187.660156 43.558594 187.75 43.34375 187.925781 43.167969 C 188.101562 42.988281 188.316406 42.902344 188.566406 42.902344 L 210.046875 42.902344 C 210.292969 42.90625 210.503906 42.996094 210.675781 43.171875 C 210.851562 43.347656 210.9375 43.558594 210.9375 43.804688 C 210.9375 44.054688 210.851562 44.265625 210.675781 44.441406 C 210.503906 44.617188 210.292969 44.707031 210.046875 44.710938 L 188.566406 44.710938 C 188.316406 44.710938 188.101562 44.621094 187.925781 44.445312 C 187.75 44.269531 187.660156 44.054688 187.660156 43.808594 Z M 183.695312 21.824219 L 183.695312 15.488281 C 183.695312 15.488281 183.695312 14.4375 184.71875 14.4375 L 207.109375 14.4375 C 208.394531 14.4375 208.296875 15.488281 208.296875 15.488281 L 208.296875 21.824219 C 208.296875 21.824219 208.253906 23.507812 206.652344 23.507812 L 184.71875 23.507812 C 183.484375 23.507812 183.695312 21.824219 183.695312 21.824219 Z M 155.921875 21.824219 C 156.230469 20.097656 156.691406 18.121094 157.117188 16.4375 C 157.300781 15.699219 157.894531 14.4375 158.945312 14.4375 L 179.742188 14.4375 C 180.710938 14.4375 180.652344 15.484375 180.652344 15.484375 L 180.652344 21.824219 C 180.652344 21.824219 180.710938 23.507812 179.742188 23.507812 L 157.960938 23.507812 C 156.484375 23.507812 155.8125 22.421875 155.921875 21.824219 Z M 155.921875 21.824219 " fill-opacity="1" fill-rule="nonzero"/></g><g fill="#ffffff" fill-opacity="1"><g transform="translate(6, 24.771428)"><g><path d="M 8.328125 0.28125 C 6.867188 0.28125 5.578125 -0.0351562 4.453125 -0.671875 C 3.335938 -1.304688 2.460938 -2.1875 1.828125 -3.3125 C 1.203125 -4.4375 0.890625 -5.734375 0.890625 -7.203125 C 0.890625 -8.660156 1.203125 -9.953125 1.828125 -11.078125 C 2.460938 -12.203125 3.335938 -13.082031 4.453125 -13.71875 C 5.566406 -14.363281 6.851562 -14.6875 8.3125 -14.6875 C 9.53125 -14.6875 10.644531 -14.453125 11.65625 -13.984375 C 12.675781 -13.515625 13.53125 -12.851562 14.21875 -12 C 14.90625 -11.15625 15.390625 -10.15625 15.671875 -9 L 12.296875 -9 C 12.023438 -9.800781 11.535156 -10.429688 10.828125 -10.890625 C 10.128906 -11.347656 9.320312 -11.578125 8.40625 -11.578125 C 7.601562 -11.578125 6.878906 -11.390625 6.234375 -11.015625 C 5.597656 -10.648438 5.101562 -10.140625 4.75 -9.484375 C 4.394531 -8.828125 4.21875 -8.066406 4.21875 -7.203125 C 4.21875 -6.335938 4.394531 -5.570312 4.75 -4.90625 C 5.101562 -4.25 5.59375 -3.734375 6.21875 -3.359375 C 6.851562 -2.992188 7.578125 -2.8125 8.390625 -2.8125 C 9.335938 -2.8125 10.164062 -3.054688 10.875 -3.546875 C 11.59375 -4.035156 12.101562 -4.691406 12.40625 -5.515625 L 15.765625 -5.515625 C 15.535156 -4.347656 15.070312 -3.328125 14.375 -2.453125 C 13.675781 -1.585938 12.804688 -0.914062 11.765625 -0.4375 C 10.734375 0.0390625 9.585938 0.28125 8.328125 0.28125 Z M 8.328125 0.28125 "/></g></g></g><g fill="#ffffff" fill-opacity="1"><g transform="translate(22.594601, 24.771428)"><g><path d="M 6.875 0.28125 C 5.675781 0.28125 4.617188 0.0390625 3.703125 -0.4375 C 2.796875 -0.914062 2.082031 -1.582031 1.5625 -2.4375 C 1.050781 -3.289062 0.796875 -4.28125 0.796875 -5.40625 C 0.796875 -6.53125 1.050781 -7.515625 1.5625 -8.359375 C 2.082031 -9.210938 2.796875 -9.878906 3.703125 -10.359375 C 4.617188 -10.835938 5.675781 -11.078125 6.875 -11.078125 C 8.0625 -11.078125 9.109375 -10.835938 10.015625 -10.359375 C 10.929688 -9.878906 11.640625 -9.210938 12.140625 -8.359375 C 12.648438 -7.515625 12.90625 -6.53125 12.90625 -5.40625 C 12.90625 -4.28125 12.648438 -3.289062 12.140625 -2.4375 C 11.640625 -1.582031 10.929688 -0.914062 10.015625 -0.4375 C 9.109375 0.0390625 8.0625 0.28125 6.875 0.28125 Z M 3.890625 -5.40625 C 3.890625 -4.53125 4.164062 -3.8125 4.71875 -3.25 C 5.269531 -2.6875 5.988281 -2.40625 6.875 -2.40625 C 7.75 -2.40625 8.457031 -2.6875 9 -3.25 C 9.550781 -3.8125 9.828125 -4.53125 9.828125 -5.40625 C 9.828125 -6.300781 9.550781 -7.023438 9 -7.578125 C 8.457031 -8.128906 7.75 -8.40625 6.875 -8.40625 C 5.988281 -8.40625 5.269531 -8.128906 4.71875 -7.578125 C 4.164062 -7.023438 3.890625 -6.300781 3.890625 -5.40625 Z M 3.890625 -5.40625 "/></g></g></g><g fill="#ffffff" fill-opacity="1"><g transform="translate(36.31033, 24.771428)"><g><path d="M 5.71875 0.28125 C 4.726562 0.28125 3.863281 0.125 3.125 -0.1875 C 2.394531 -0.5 1.828125 -0.9375 1.421875 -1.5 C 1.023438 -2.0625 0.828125 -2.71875 0.828125 -3.46875 L 3.890625 -3.46875 C 3.898438 -3.03125 4.066406 -2.679688 4.390625 -2.421875 C 4.722656 -2.160156 5.175781 -2.03125 5.75 -2.03125 C 6.25 -2.03125 6.632812 -2.125 6.90625 -2.3125 C 7.175781 -2.5 7.3125 -2.75 7.3125 -3.0625 C 7.3125 -3.40625 7.125 -3.6875 6.75 -3.90625 C 6.382812 -4.132812 5.785156 -4.320312 4.953125 -4.46875 C 3.585938 -4.707031 2.582031 -5.101562 1.9375 -5.65625 C 1.289062 -6.207031 0.96875 -6.925781 0.96875 -7.8125 C 0.96875 -8.863281 1.359375 -9.671875 2.140625 -10.234375 C 2.929688 -10.796875 4.054688 -11.078125 5.515625 -11.078125 C 6.953125 -11.078125 8.078125 -10.769531 8.890625 -10.15625 C 9.703125 -9.539062 10.144531 -8.664062 10.21875 -7.53125 L 7.234375 -7.53125 C 7.210938 -7.9375 7.046875 -8.253906 6.734375 -8.484375 C 6.421875 -8.710938 6.003906 -8.828125 5.484375 -8.828125 C 5.023438 -8.828125 4.660156 -8.734375 4.390625 -8.546875 C 4.117188 -8.367188 3.984375 -8.125 3.984375 -7.8125 C 3.984375 -7.476562 4.15625 -7.21875 4.5 -7.03125 C 4.851562 -6.851562 5.492188 -6.671875 6.421875 -6.484375 C 9.078125 -5.941406 10.40625 -4.796875 10.40625 -3.046875 C 10.40625 -2.015625 9.988281 -1.203125 9.15625 -0.609375 C 8.332031 -0.015625 7.1875 0.28125 5.71875 0.28125 Z M 5.71875 0.28125 "/></g></g></g><g fill="#ffffff" fill-opacity="1"><g transform="translate(47.558466, 24.771428)"><g><path d="M 6.765625 0 C 5.390625 0 4.335938 -0.351562 3.609375 -1.0625 C 2.878906 -1.769531 2.515625 -2.78125 2.515625 -4.09375 L 2.515625 -8.25 L 0.40625 -8.25 L 0.40625 -10.796875 L 1.375 -10.796875 C 1.96875 -10.796875 2.367188 -10.890625 2.578125 -11.078125 C 2.796875 -11.273438 2.941406 -11.644531 3.015625 -12.1875 L 3.203125 -13.59375 L 5.640625 -13.59375 L 5.640625 -10.796875 L 8.59375 -10.796875 L 8.59375 -8.25 L 5.640625 -8.25 L 5.640625 -4.5625 C 5.640625 -3.332031 6.238281 -2.71875 7.4375 -2.71875 L 8.734375 -2.71875 L 8.734375 0 Z M 6.765625 0 "/></g></g></g><g fill="#ffffff" fill-opacity="1"><g transform="translate(57.161537, 24.771428)"><g><path d="M 5.15625 0.203125 C 3.882812 0.203125 2.878906 -0.09375 2.140625 -0.6875 C 1.398438 -1.28125 1.03125 -2.097656 1.03125 -3.140625 C 1.03125 -4.140625 1.359375 -4.9375 2.015625 -5.53125 C 2.679688 -6.132812 3.578125 -6.4375 4.703125 -6.4375 L 8.609375 -6.4375 L 8.609375 -6.921875 C 8.609375 -7.460938 8.414062 -7.894531 8.03125 -8.21875 C 7.65625 -8.539062 7.15625 -8.703125 6.53125 -8.703125 C 6.03125 -8.703125 5.597656 -8.582031 5.234375 -8.34375 C 4.878906 -8.113281 4.65625 -7.804688 4.5625 -7.421875 L 1.5625 -7.421875 C 1.75 -8.597656 2.28125 -9.5 3.15625 -10.125 C 4.03125 -10.757812 5.148438 -11.078125 6.515625 -11.078125 C 8.128906 -11.078125 9.390625 -10.671875 10.296875 -9.859375 C 11.210938 -9.046875 11.671875 -7.925781 11.671875 -6.5 L 11.671875 0 L 9.359375 0 L 9 -1.25 C 8.0625 -0.28125 6.78125 0.203125 5.15625 0.203125 Z M 4.109375 -3.265625 C 4.109375 -2.898438 4.269531 -2.601562 4.59375 -2.375 C 4.914062 -2.144531 5.34375 -2.03125 5.875 -2.03125 C 6.65625 -2.03125 7.300781 -2.253906 7.8125 -2.703125 C 8.332031 -3.160156 8.609375 -3.753906 8.640625 -4.484375 L 5.671875 -4.484375 C 5.203125 -4.484375 4.820312 -4.375 4.53125 -4.15625 C 4.25 -3.9375 4.109375 -3.640625 4.109375 -3.265625 Z M 4.109375 -3.265625 "/></g></g></g><g fill="#ffffff" fill-opacity="1"><g transform="translate(70.198676, 24.771428)"><g/></g></g><g fill="#ffffff" fill-opacity="1"><g transform="translate(75.031052, 24.771428)"><g><path d="M 1.734375 0 L 1.734375 -14.390625 L 7.875 -14.390625 C 8.96875 -14.390625 9.921875 -14.191406 10.734375 -13.796875 C 11.546875 -13.398438 12.171875 -12.832031 12.609375 -12.09375 C 13.046875 -11.351562 13.265625 -10.46875 13.265625 -9.4375 C 13.265625 -8.382812 13.023438 -7.476562 12.546875 -6.71875 C 12.066406 -5.957031 11.394531 -5.382812 10.53125 -5 L 13.515625 0 L 9.71875 0 L 7.15625 -4.484375 L 5 -4.484375 L 5 0 Z M 4.953125 -7.234375 L 7.4375 -7.234375 C 8.25 -7.234375 8.867188 -7.421875 9.296875 -7.796875 C 9.734375 -8.179688 9.953125 -8.722656 9.953125 -9.421875 C 9.953125 -10.117188 9.734375 -10.65625 9.296875 -11.03125 C 8.867188 -11.40625 8.25 -11.59375 7.4375 -11.59375 L 4.953125 -11.59375 Z M 4.953125 -7.234375 "/></g></g></g><g fill="#ffffff" fill-opacity="1"><g transform="translate(89.507626, 24.771428)"><g><path d="M 1.5625 0 L 1.5625 -10.796875 L 4.6875 -10.796875 L 4.6875 0 Z M 1.109375 -14.296875 C 1.109375 -14.867188 1.296875 -15.335938 1.671875 -15.703125 C 2.046875 -16.066406 2.53125 -16.25 3.125 -16.25 C 3.726562 -16.25 4.210938 -16.066406 4.578125 -15.703125 C 4.953125 -15.335938 5.140625 -14.867188 5.140625 -14.296875 C 5.140625 -13.710938 4.953125 -13.238281 4.578125 -12.875 C 4.210938 -12.519531 3.726562 -12.34375 3.125 -12.34375 C 2.53125 -12.34375 2.046875 -12.519531 1.671875 -12.875 C 1.296875 -13.238281 1.109375 -13.710938 1.109375 -14.296875 Z M 1.109375 -14.296875 "/></g></g></g><g fill="#ffffff" fill-opacity="1"><g transform="translate(95.758875, 24.771428)"><g><path d="M 6.703125 0.28125 C 5.546875 0.28125 4.519531 0.0390625 3.625 -0.4375 C 2.738281 -0.925781 2.046875 -1.597656 1.546875 -2.453125 C 1.046875 -3.316406 0.796875 -4.300781 0.796875 -5.40625 C 0.796875 -6.519531 1.046875 -7.5 1.546875 -8.34375 C 2.046875 -9.195312 2.738281 -9.863281 3.625 -10.34375 C 4.519531 -10.832031 5.546875 -11.078125 6.703125 -11.078125 C 7.703125 -11.078125 8.609375 -10.894531 9.421875 -10.53125 C 10.242188 -10.175781 10.921875 -9.664062 11.453125 -9 C 11.984375 -8.332031 12.332031 -7.550781 12.5 -6.65625 L 9.5 -6.65625 C 9.238281 -7.207031 8.867188 -7.632812 8.390625 -7.9375 C 7.910156 -8.25 7.363281 -8.40625 6.75 -8.40625 C 5.90625 -8.40625 5.21875 -8.128906 4.6875 -7.578125 C 4.15625 -7.023438 3.890625 -6.300781 3.890625 -5.40625 C 3.890625 -4.53125 4.15625 -3.8125 4.6875 -3.25 C 5.21875 -2.6875 5.90625 -2.40625 6.75 -2.40625 C 7.40625 -2.40625 7.984375 -2.578125 8.484375 -2.921875 C 8.984375 -3.273438 9.34375 -3.75 9.5625 -4.34375 L 12.609375 -4.34375 C 12.410156 -3.394531 12.039062 -2.570312 11.5 -1.875 C 10.957031 -1.1875 10.273438 -0.65625 9.453125 -0.28125 C 8.628906 0.09375 7.710938 0.28125 6.703125 0.28125 Z M 6.703125 0.28125 "/></g></g></g><g fill="#ffffff" fill-opacity="1"><g transform="translate(109.125026, 24.771428)"><g><path d="M 5.15625 0.203125 C 3.882812 0.203125 2.878906 -0.09375 2.140625 -0.6875 C 1.398438 -1.28125 1.03125 -2.097656 1.03125 -3.140625 C 1.03125 -4.140625 1.359375 -4.9375 2.015625 -5.53125 C 2.679688 -6.132812 3.578125 -6.4375 4.703125 -6.4375 L 8.609375 -6.4375 L 8.609375 -6.921875 C 8.609375 -7.460938 8.414062 -7.894531 8.03125 -8.21875 C 7.65625 -8.539062 7.15625 -8.703125 6.53125 -8.703125 C 6.03125 -8.703125 5.597656 -8.582031 5.234375 -8.34375 C 4.878906 -8.113281 4.65625 -7.804688 4.5625 -7.421875 L 1.5625 -7.421875 C 1.75 -8.597656 2.28125 -9.5 3.15625 -10.125 C 4.03125 -10.757812 5.148438 -11.078125 6.515625 -11.078125 C 8.128906 -11.078125 9.390625 -10.671875 10.296875 -9.859375 C 11.210938 -9.046875 11.671875 -7.925781 11.671875 -6.5 L 11.671875 0 L 9.359375 0 L 9 -1.25 C 8.0625 -0.28125 6.78125 0.203125 5.15625 0.203125 Z M 4.109375 -3.265625 C 4.109375 -2.898438 4.269531 -2.601562 4.59375 -2.375 C 4.914062 -2.144531 5.34375 -2.03125 5.875 -2.03125 C 6.65625 -2.03125 7.300781 -2.253906 7.8125 -2.703125 C 8.332031 -3.160156 8.609375 -3.753906 8.640625 -4.484375 L 5.671875 -4.484375 C 5.203125 -4.484375 4.820312 -4.375 4.53125 -4.15625 C 4.25 -3.9375 4.109375 -3.640625 4.109375 -3.265625 Z M 4.109375 -3.265625 "/></g></g></g><g fill="#ffffff" fill-opacity="1"><g transform="translate(122.172323, 24.771428)"><g/></g></g><g fill="#ffffff" fill-opacity="1"><g transform="translate(6.351562, 47.807148)"><g><path d="M 0.65625 0 L 3.53125 -14.390625 L 6.1875 -14.390625 L 10.859375 -5.484375 L 11.328125 -7.859375 L 12.625 -14.390625 L 15.890625 -14.390625 L 13.015625 0 L 10.359375 0 L 5.703125 -8.859375 L 5.28125 -6.8125 L 3.921875 0 Z M 0.65625 0 "/></g></g></g><g fill="#ffffff" fill-opacity="1"><g transform="translate(22.178649, 47.807148)"><g><path d="M 6.03125 0.28125 C 4.789062 0.28125 3.742188 0.03125 2.890625 -0.46875 C 2.035156 -0.976562 1.425781 -1.679688 1.0625 -2.578125 C 0.695312 -3.472656 0.625 -4.5 0.84375 -5.65625 C 1.0625 -6.738281 1.488281 -7.6875 2.125 -8.5 C 2.757812 -9.3125 3.554688 -9.941406 4.515625 -10.390625 C 5.484375 -10.847656 6.539062 -11.078125 7.6875 -11.078125 C 8.925781 -11.078125 9.972656 -10.820312 10.828125 -10.3125 C 11.679688 -9.8125 12.289062 -9.113281 12.65625 -8.21875 C 13.03125 -7.332031 13.101562 -6.3125 12.875 -5.15625 C 12.664062 -4.070312 12.238281 -3.117188 11.59375 -2.296875 C 10.945312 -1.472656 10.144531 -0.835938 9.1875 -0.390625 C 8.226562 0.0546875 7.175781 0.28125 6.03125 0.28125 Z M 3.921875 -5.34375 C 3.742188 -4.5 3.867188 -3.796875 4.296875 -3.234375 C 4.734375 -2.679688 5.367188 -2.40625 6.203125 -2.40625 C 6.796875 -2.40625 7.34375 -2.535156 7.84375 -2.796875 C 8.34375 -3.066406 8.765625 -3.429688 9.109375 -3.890625 C 9.453125 -4.347656 9.675781 -4.867188 9.78125 -5.453125 C 9.96875 -6.316406 9.84375 -7.023438 9.40625 -7.578125 C 8.976562 -8.128906 8.34375 -8.40625 7.5 -8.40625 C 6.925781 -8.40625 6.382812 -8.269531 5.875 -8 C 5.375 -7.738281 4.953125 -7.378906 4.609375 -6.921875 C 4.265625 -6.460938 4.035156 -5.9375 3.921875 -5.34375 Z M 3.921875 -5.34375 "/></g></g></g><g fill="#ffffff" fill-opacity="1"><g transform="translate(35.888613, 47.807148)"><g><path d="M 0.5 0 L 2.65625 -10.796875 L 4.953125 -10.796875 L 5.0625 -9.421875 C 5.507812 -9.921875 6.003906 -10.273438 6.546875 -10.484375 C 7.097656 -10.691406 7.773438 -10.796875 8.578125 -10.796875 L 9.828125 -10.796875 L 9.28125 -7.953125 L 8.125 -7.953125 C 7.226562 -7.953125 6.472656 -7.707031 5.859375 -7.21875 C 5.242188 -6.726562 4.816406 -5.898438 4.578125 -4.734375 L 3.640625 0 Z M 0.5 0 "/></g></g></g><g fill="#ffffff" fill-opacity="1"><g transform="translate(45.343756, 47.807148)"><g><path d="M 5.78125 0 C 4.40625 0 3.40625 -0.367188 2.78125 -1.109375 C 2.15625 -1.859375 1.972656 -2.894531 2.234375 -4.21875 L 3.0625 -8.25 L 0.984375 -8.25 L 1.5 -10.796875 L 2.40625 -10.796875 C 2.976562 -10.796875 3.398438 -10.894531 3.671875 -11.09375 C 3.941406 -11.300781 4.164062 -11.679688 4.34375 -12.234375 L 4.8125 -13.59375 L 7.3125 -13.59375 L 6.765625 -10.796875 L 9.671875 -10.796875 L 9.15625 -8.25 L 6.234375 -8.25 L 5.484375 -4.546875 C 5.367188 -3.910156 5.414062 -3.445312 5.625 -3.15625 C 5.832031 -2.863281 6.25 -2.71875 6.875 -2.71875 L 8.203125 -2.71875 L 7.65625 0 Z M 5.78125 0 "/></g></g></g><g fill="#ffffff" fill-opacity="1"><g transform="translate(54.942785, 47.807148)"><g><path d="M 0.5 0 L 3.53125 -15.21875 L 6.65625 -15.21875 L 5.640625 -10.09375 C 6.566406 -10.75 7.617188 -11.078125 8.796875 -11.078125 C 10.222656 -11.078125 11.269531 -10.617188 11.9375 -9.703125 C 12.601562 -8.796875 12.785156 -7.59375 12.484375 -6.09375 L 11.265625 0 L 8.078125 0 L 9.25 -5.921875 C 9.59375 -7.578125 9.085938 -8.40625 7.734375 -8.40625 C 7.003906 -8.40625 6.375 -8.148438 5.84375 -7.640625 C 5.320312 -7.140625 4.972656 -6.460938 4.796875 -5.609375 L 3.6875 0 Z M 0.5 0 "/></g></g></g><g fill="#ffffff" fill-opacity="1"><g transform="translate(68.632184, 47.807148)"><g><path d="M 3.109375 0 L 1.28125 -10.796875 L 4.4375 -10.796875 L 4.96875 -7.234375 L 5.421875 -4.171875 L 7.15625 -7.234375 L 9.21875 -10.796875 L 11.734375 -10.796875 L 12.3125 -7.234375 L 12.84375 -4.1875 L 14.53125 -7.234375 L 16.53125 -10.796875 L 19.953125 -10.796875 L 13.8125 0 L 10.953125 0 L 10.359375 -3.578125 L 9.828125 -6.59375 L 8.125 -3.578125 L 6.046875 0 Z M 3.109375 0 "/></g></g></g><g fill="#ffffff" fill-opacity="1"><g transform="translate(87.686355, 47.807148)"><g><path d="M 5.71875 0.28125 C 4.539062 0.28125 3.539062 0.03125 2.71875 -0.46875 C 1.90625 -0.96875 1.328125 -1.65625 0.984375 -2.53125 C 0.640625 -3.414062 0.585938 -4.4375 0.828125 -5.59375 C 1.054688 -6.6875 1.488281 -7.644531 2.125 -8.46875 C 2.757812 -9.289062 3.546875 -9.929688 4.484375 -10.390625 C 5.429688 -10.847656 6.472656 -11.078125 7.609375 -11.078125 C 8.859375 -11.078125 9.890625 -10.796875 10.703125 -10.234375 C 11.515625 -9.671875 12.070312 -8.894531 12.375 -7.90625 C 12.675781 -6.925781 12.675781 -5.789062 12.375 -4.5 L 3.71875 -4.5 C 3.707031 -3.789062 3.90625 -3.234375 4.3125 -2.828125 C 4.71875 -2.421875 5.28125 -2.21875 6 -2.21875 C 7.101562 -2.21875 8.003906 -2.609375 8.703125 -3.390625 L 12.03125 -3.390625 C 11.351562 -2.222656 10.457031 -1.316406 9.34375 -0.671875 C 8.238281 -0.0351562 7.03125 0.28125 5.71875 0.28125 Z M 4.1875 -6.484375 L 9.75 -6.484375 C 9.707031 -7.160156 9.484375 -7.679688 9.078125 -8.046875 C 8.671875 -8.410156 8.117188 -8.59375 7.421875 -8.59375 C 6.710938 -8.59375 6.078125 -8.398438 5.515625 -8.015625 C 4.953125 -7.628906 4.507812 -7.117188 4.1875 -6.484375 Z M 4.1875 -6.484375 "/></g></g></g><g fill="#ffffff" fill-opacity="1"><g transform="translate(101.026332, 47.807148)"><g><path d="M 4.828125 0.28125 C 3.253906 0.28125 2.066406 -0.0546875 1.265625 -0.734375 C 0.472656 -1.410156 0.195312 -2.320312 0.4375 -3.46875 L 3.515625 -3.46875 C 3.367188 -2.507812 3.875 -2.03125 5.03125 -2.03125 C 5.550781 -2.03125 5.96875 -2.125 6.28125 -2.3125 C 6.601562 -2.5 6.800781 -2.75 6.875 -3.0625 C 6.9375 -3.414062 6.8125 -3.695312 6.5 -3.90625 C 6.1875 -4.125 5.660156 -4.296875 4.921875 -4.421875 C 3.585938 -4.648438 2.628906 -5.066406 2.046875 -5.671875 C 1.472656 -6.273438 1.285156 -7.046875 1.484375 -7.984375 C 1.679688 -8.960938 2.210938 -9.722656 3.078125 -10.265625 C 3.941406 -10.804688 5.066406 -11.078125 6.453125 -11.078125 C 7.953125 -11.078125 9.070312 -10.769531 9.8125 -10.15625 C 10.550781 -9.539062 10.84375 -8.664062 10.6875 -7.53125 L 7.671875 -7.53125 C 7.773438 -8.394531 7.285156 -8.828125 6.203125 -8.828125 C 5.203125 -8.828125 4.644531 -8.492188 4.53125 -7.828125 C 4.457031 -7.484375 4.566406 -7.210938 4.859375 -7.015625 C 5.160156 -6.816406 5.6875 -6.648438 6.4375 -6.515625 C 7.78125 -6.285156 8.75 -5.847656 9.34375 -5.203125 C 9.9375 -4.566406 10.140625 -3.78125 9.953125 -2.84375 C 9.742188 -1.851562 9.191406 -1.082031 8.296875 -0.53125 C 7.398438 0.0078125 6.242188 0.28125 4.828125 0.28125 Z M 4.828125 0.28125 "/></g></g></g><g fill="#ffffff" fill-opacity="1"><g transform="translate(112.290282, 47.807148)"><g><path d="M 5.78125 0 C 4.40625 0 3.40625 -0.367188 2.78125 -1.109375 C 2.15625 -1.859375 1.972656 -2.894531 2.234375 -4.21875 L 3.0625 -8.25 L 0.984375 -8.25 L 1.5 -10.796875 L 2.40625 -10.796875 C 2.976562 -10.796875 3.398438 -10.894531 3.671875 -11.09375 C 3.941406 -11.300781 4.164062 -11.679688 4.34375 -12.234375 L 4.8125 -13.59375 L 7.3125 -13.59375 L 6.765625 -10.796875 L 9.671875 -10.796875 L 9.15625 -8.25 L 6.234375 -8.25 L 5.484375 -4.546875 C 5.367188 -3.910156 5.414062 -3.445312 5.625 -3.15625 C 5.832031 -2.863281 6.25 -2.71875 6.875 -2.71875 L 8.203125 -2.71875 L 7.65625 0 Z M 5.78125 0 "/></g></g></g></svg>